<svg width="39" height="39" viewBox="-5 -5 50 50" fill="none" xmlns="http://www.w3.org/2000/svg">
<path d="M38.9366 19.1904C38.9085 18.6814 38.8641 18.1762 38.8037 17.6782L23.1479 17.6514C23.2179 16.4672 23.3738 15.3082 23.6107 14.2103C23.9339 12.6943 24.4084 11.3203 25.0063 10.1691C25.595 9.05221 26.2908 8.17548 27.0535 7.58979C28.2792 6.55375 29.6389 6.29064 30.9443 6.83688C32.2497 7.38312 33.4362 8.71198 34.3397 10.639L36.8119 5.89416C35.9355 4.04087 34.8715 2.56669 33.688 1.56602C32.3805 0.487584 30.973 -0.0446751 29.5548 0.0031103C28.2161 -0.0128169 26.8885 0.482378 25.6462 1.46111C24.457 2.39333 23.3731 3.77516 22.456 5.52819C21.5422 7.29725 20.8111 9.39564 20.3027 11.7081C19.8852 13.5939 19.6293 15.6021 19.5452 17.6514H19.4432C19.3589 15.6019 19.1026 13.5936 18.6845 11.7081C18.1766 9.39516 17.4455 7.2966 16.5313 5.52819C15.6144 3.77465 14.5304 2.39275 13.3412 1.46111C10.7524 -0.521062 7.87507 -0.485209 5.29933 1.56114C4.116 2.56242 3.05202 4.03652 2.17537 5.88928L4.64811 10.6341C5.57664 8.78146 6.76228 7.50435 8.05769 6.96228C9.35309 6.42022 10.7012 6.63683 11.9344 7.58491C12.697 8.17024 13.3927 9.04703 13.981 10.1642C14.5793 11.3151 15.0539 12.6891 15.3771 14.2054C15.6141 15.3033 15.77 16.4617 15.8399 17.646L0.184164 17.6733C0.123767 18.1714 0.0793582 18.676 0.0511846 19.185C0.0163746 19.7731 -0.000689208 20.3647 0.000182198 20.9568C-0.00672413 23.2617 0.182758 25.5529 0.560711 27.7354C0.932123 29.8532 1.53021 31.7906 2.31494 33.4176C3.17355 35.2005 4.21564 36.605 5.3721 37.5379C6.66516 38.5487 8.04795 39.0446 9.43972 38.9968C10.7782 39.0128 12.1054 38.5173 13.3473 37.5379C14.5368 36.6073 15.6209 35.2248 16.5374 33.4703C17.4519 31.7025 18.1832 29.6043 18.6907 27.2909C18.9508 26.1257 19.1476 24.9098 19.2781 23.6639H19.7219C19.8525 24.9095 20.049 26.1254 20.3083 27.2909C20.8162 29.6038 21.5475 31.7019 22.4616 33.4703C23.3783 35.2243 24.4624 36.6067 25.6518 37.5379C26.894 38.5171 28.2216 39.0127 29.5604 38.9968C30.9519 39.0448 32.3342 38.5488 33.6269 37.5379C34.7836 36.6058 35.8257 35.2012 36.6841 33.4176C37.4691 31.7907 38.0676 29.8533 38.4394 27.7354C38.8173 25.5528 39.0066 23.2617 38.9998 20.9568C38.9962 20.3659 38.9751 19.7764 38.9366 19.1904ZM15.3737 24.7945C15.0492 26.3156 14.5696 27.6905 13.9643 28.8347C13.3693 29.9486 12.6697 30.8253 11.9043 31.416C10.273 32.6135 8.47763 32.6317 6.8401 31.4677C6.17956 30.9437 5.5719 30.1934 5.04556 29.2514C4.67069 28.5733 4.36013 27.77 4.12839 26.879C3.86064 25.8645 3.65975 24.7872 3.53067 23.6732H15.5851C15.525 24.0542 15.4547 24.4288 15.3747 24.7955L15.3737 24.7945ZM34.8558 26.879C34.624 27.7699 34.3136 28.5732 33.9388 29.2514C33.4125 30.1935 32.8047 30.9438 32.1441 31.4677C30.5066 32.6317 28.7112 32.6135 27.08 31.416C26.3145 30.8249 25.6148 29.9483 25.0195 28.8347C24.4142 27.6906 23.9348 26.3157 23.6107 24.7945C23.5302 24.4269 23.4596 24.0514 23.3992 23.6693H29.4727H35.454C35.325 24.7849 35.1241 25.8637 34.8563 26.88L34.8558 26.879Z" fill="#2F8D46"/>
</svg>
