<svg width="1929" height="336" viewBox="0 0 1929 336" fill="none" xmlns="http://www.w3.org/2000/svg">
<g filter="url(#filter0_d)">
<path fill-rule="evenodd" clip-rule="evenodd" d="M0 70.5675L40 112.416C80 153.443 160 236.319 240 224.831C320 212.523 400 106.672 480 100.107C560 94.3635 640 188.727 720 247.807C800 306.887 880 330.683 960 319.195C1040 306.887 1120 260.115 1200 218.267C1280 177.239 1360 141.956 1440 136.212C1520 129.647 1600 153.443 1680 171.495C1760 188.727 1840 201.035 1880 206.779L1920 212.523V1.16825e-05H1880C1840 1.16825e-05 1760 1.16825e-05 1680 1.16825e-05C1600 1.16825e-05 1520 1.16825e-05 1440 1.16825e-05C1360 1.16825e-05 1280 1.16825e-05 1200 1.16825e-05C1120 1.16825e-05 1040 1.16825e-05 960 1.16825e-05C880 1.16825e-05 800 1.16825e-05 720 1.16825e-05C640 1.16825e-05 560 1.16825e-05 480 1.16825e-05C400 1.16825e-05 320 1.16825e-05 240 1.16825e-05C160 1.16825e-05 80 1.16825e-05 40 1.16825e-05H0L0 70.5675Z" fill="#FF0000" fill-opacity="0.55" shape-rendering="crispEdges"/>
<path fill-rule="evenodd" clip-rule="evenodd" d="M0 70.5675L40 112.416C80 153.443 160 236.319 240 224.831C320 212.523 400 106.672 480 100.107C560 94.3635 640 188.727 720 247.807C800 306.887 880 330.683 960 319.195C1040 306.887 1120 260.115 1200 218.267C1280 177.239 1360 141.956 1440 136.212C1520 129.647 1600 153.443 1680 171.495C1760 188.727 1840 201.035 1880 206.779L1920 212.523V1.16825e-05H1880C1840 1.16825e-05 1760 1.16825e-05 1680 1.16825e-05C1600 1.16825e-05 1520 1.16825e-05 1440 1.16825e-05C1360 1.16825e-05 1280 1.16825e-05 1200 1.16825e-05C1120 1.16825e-05 1040 1.16825e-05 960 1.16825e-05C880 1.16825e-05 800 1.16825e-05 720 1.16825e-05C640 1.16825e-05 560 1.16825e-05 480 1.16825e-05C400 1.16825e-05 320 1.16825e-05 240 1.16825e-05C160 1.16825e-05 80 1.16825e-05 40 1.16825e-05H0L0 70.5675Z" stroke="black" shape-rendering="crispEdges"/>
</g>
<defs>
<filter id="filter0_d" x="0" y="0" width="1929" height="336" filterUnits="userSpaceOnUse" color-interpolation-filters="sRGB">
<feFlood flood-opacity="0" result="BackgroundImageFix"/>
<feColorMatrix in="SourceAlpha" type="matrix" values="0 0 0 0 0 0 0 0 0 0 0 0 0 0 0 0 0 0 127 0" result="hardAlpha"/>
<feOffset dx="5" dy="10"/>
<feGaussianBlur stdDeviation="2"/>
<feComposite in2="hardAlpha" operator="out"/>
<feColorMatrix type="matrix" values="0 0 0 0 0 0 0 0 0 0 0 0 0 0 0 0 0 0 0.5 0"/>
<feBlend mode="normal" in2="BackgroundImageFix" result="effect1_dropShadow"/>
<feBlend mode="normal" in="SourceGraphic" in2="effect1_dropShadow" result="shape"/>
</filter>
</defs>
</svg>
